<?xml version="1.0" encoding="UTF-8" standalone="no"?>
<!DOCTYPE svg PUBLIC "-//W3C//DTD SVG 1.1//EN" "http://www.w3.org/Graphics/SVG/1.1/DTD/svg11.dtd">
<svg width="100%" height="100%" viewBox="0 0 43 43" version="1.1" xmlns="http://www.w3.org/2000/svg" xmlns:xlink="http://www.w3.org/1999/xlink" xml:space="preserve" xmlns:serif="http://www.serif.com/" style="fill-rule:evenodd;clip-rule:evenodd;stroke-linejoin:round;stroke-miterlimit:2;">
    <g transform="matrix(1,0,0,1,-0.5,-0.5)">
        <g transform="matrix(1.375,0,0,1.375,0,0)">
            <g transform="matrix(44.7252,0,0,46.1763,-4.00406,31.8393)">
                <path d="M0.371,-0.004C0.396,-0.004 0.415,-0.014 0.429,-0.035L0.783,-0.583C0.793,-0.599 0.797,-0.612 0.797,-0.625C0.797,-0.658 0.773,-0.682 0.739,-0.682C0.715,-0.682 0.701,-0.673 0.687,-0.651L0.369,-0.146L0.206,-0.357C0.192,-0.375 0.177,-0.382 0.157,-0.382C0.123,-0.382 0.098,-0.357 0.098,-0.324C0.098,-0.309 0.103,-0.295 0.115,-0.281L0.313,-0.033C0.33,-0.014 0.347,-0.004 0.371,-0.004Z" style="fill:rgb(0,136,9);fill-rule:nonzero;"/>
            </g>
        </g>
    </g>
</svg>
